<?xml version="1.0" standalone="no"?>
<!DOCTYPE svg PUBLIC "-//W3C//DTD SVG 20010904//EN"
 "http://www.w3.org/TR/2001/REC-SVG-20010904/DTD/svg10.dtd">
<svg version="1.0" xmlns="http://www.w3.org/2000/svg"
 width="248.000000pt" height="49.000000pt" viewBox="0 0 248.000000 49.000000"
 preserveAspectRatio="xMidYMid meet">

<g transform="translate(0.000000,49.000000) scale(0.100000,-0.100000)"
fill="#000000" stroke="none">
<path d="M94 351 c-30 -13 -73 -71 -80 -109 -9 -45 14 -120 42 -139 28 -18
126 -28 188 -19 60 9 81 38 71 96 -5 32 -12 41 -32 47 -31 7 -57 -7 -61 -33
-7 -45 -13 -50 -28 -30 -17 24 -18 87 -1 108 6 9 34 18 62 22 58 7 70 16 53
38 -15 19 -180 33 -214 19z"/>
<path d="M400 352 c-25 -8 -25 -9 -28 -130 l-3 -122 26 -10 c29 -11 95 -13
119 -4 9 3 16 17 16 30 0 31 14 30 37 -2 13 -17 31 -27 60 -31 50 -7 60 7 36
47 -16 28 -16 32 0 59 32 54 17 120 -33 146 -35 18 -189 29 -230 17z m181 -81
c21 -16 22 -22 11 -45 -8 -18 -19 -26 -37 -26 -22 0 -25 4 -25 38 0 57 12 65
51 33z"/>
<path d="M825 346 c-60 -27 -104 -99 -91 -149 30 -121 232 -163 328 -68 65 66
59 150 -15 205 -36 27 -174 34 -222 12z m165 -91 c20 -21 22 -29 12 -49 -12
-28 -54 -41 -82 -26 -29 16 -30 66 -2 88 24 18 46 15 72 -13z"/>
<path d="M1166 353 c-23 -6 -17 -39 21 -127 76 -174 147 -201 205 -81 12 25
25 45 28 45 4 0 15 -19 26 -42 40 -87 107 -101 143 -30 24 47 91 219 91 232 0
5 -13 10 -30 10 -32 0 -53 -24 -65 -72 -4 -15 -13 -32 -20 -38 -10 -8 -16 -3
-25 25 -15 44 -35 55 -103 55 l-54 0 -12 -40 c-6 -21 -16 -42 -20 -45 -5 -3
-18 21 -28 52 l-20 58 -59 2 c-32 0 -67 -1 -78 -4z"/>
<path d="M1720 330 c0 -26 5 -31 29 -36 36 -7 41 -23 41 -133 l0 -84 61 7 c34
3 70 6 79 6 15 0 19 14 24 88 8 94 10 101 41 118 11 6 21 23 23 38 l3 26 -150
0 -151 0 0 -30z"/>
<path d="M2093 350 c-22 -9 -23 -14 -23 -133 l0 -124 58 -7 c71 -8 88 -2 97
32 13 52 49 56 69 7 9 -22 22 -35 33 -35 10 0 34 -3 54 -6 60 -10 69 8 69 136
0 127 -7 140 -76 140 -60 0 -84 -25 -84 -85 0 -50 -15 -64 -48 -46 -14 7 -21
25 -25 62 -4 28 -8 53 -9 54 -11 9 -97 12 -115 5z"/>
</g>
</svg>
